<?xml version="1.0" encoding="utf-8"?>
<!-- Generator: Adobe Illustrator 19.2.1, SVG Export Plug-In . SVG Version: 6.00 Build 0)  -->
<svg version="1.1" id="LinkedIn_w_x2F__circle" xmlns="http://www.w3.org/2000/svg" xmlns:xlink="http://www.w3.org/1999/xlink"
	 x="0px" y="0px" viewBox="0 0 40 40" style="enable-background:new 0 0 40 40;" xml:space="preserve">
<style type="text/css">
	.st0{fill:#FFFFFF;}
</style>
<g>
	<circle class="st0" cx="20" cy="20" r="3.2"/>
	<path class="st0" d="M27.4,14.4c-0.2-0.4-0.4-0.8-0.7-1.1c-0.3-0.3-0.7-0.5-1.1-0.7c-0.3-0.1-0.8-0.3-1.8-0.3s-1.3-0.1-3.8-0.1
		s-2.8,0-3.8,0.1c-0.9,0-1.4,0.2-1.8,0.3c-0.4,0.2-0.8,0.4-1.1,0.7s-0.5,0.7-0.7,1.1c-0.1,0.3-0.3,0.8-0.3,1.8s-0.1,1.3-0.1,3.8
		s0,2.8,0.1,3.8c0,0.9,0.2,1.4,0.3,1.8c0.2,0.4,0.4,0.8,0.7,1.1c0.3,0.3,0.7,0.5,1.1,0.7c0.3,0.1,0.8,0.3,1.8,0.3s1.3,0.1,3.8,0.1
		s2.8,0,3.8-0.1c0.9,0,1.4-0.2,1.8-0.3c0.4-0.2,0.8-0.4,1.1-0.7c0.3-0.3,0.5-0.7,0.7-1.1c0.1-0.3,0.3-0.8,0.3-1.8s0.1-1.3,0.1-3.8
		s0-2.8-0.1-3.8C27.7,15.2,27.6,14.7,27.4,14.4z M20,24.9c-2.7,0-4.9-2.2-4.9-4.9s2.2-4.9,4.9-4.9s4.9,2.2,4.9,4.9
		S22.7,24.9,20,24.9z M25.1,16.1c-0.6,0-1.1-0.5-1.1-1.1s0.5-1.1,1.1-1.1s1.1,0.5,1.1,1.1S25.7,16.1,25.1,16.1z"/>
	<path class="st0" d="M20,0C9,0,0,9,0,20s9,20,20,20s20-9,20-20S31,0,20,0z M29.5,23.9c0,1-0.2,1.7-0.4,2.3
		c-0.2,0.6-0.6,1.2-1.1,1.7s-1.1,0.9-1.7,1.1S25,29.4,24,29.4s-1.3,0.1-3.9,0.1s-2.9,0-3.9-0.1c-1,0-1.7-0.2-2.3-0.4
		c-0.6-0.2-1.2-0.6-1.7-1.1s-0.9-1.1-1.1-1.7c-0.2-0.6-0.4-1.3-0.4-2.3s-0.1-1.3-0.1-3.9s0-2.9,0.1-3.9c0-1,0.2-1.7,0.4-2.3
		s0.6-1.2,1.1-1.7s1.1-0.9,1.7-1.1c0.6-0.2,1.3-0.4,2.3-0.4s1.3-0.1,3.9-0.1s2.9,0,3.9,0.1c1,0,1.7,0.2,2.3,0.4
		c0.6,0.2,1.2,0.6,1.7,1.1s0.9,1.1,1.1,1.7c0.2,0.6,0.4,1.3,0.4,2.3s0.1,1.3,0.1,3.9C29.5,22.6,29.5,22.9,29.5,23.9z"/>
</g>
</svg>
