<?xml version="1.0" encoding="utf-8"?>
<!-- Generator: Adobe Illustrator 19.2.1, SVG Export Plug-In . SVG Version: 6.00 Build 0)  -->
<svg version="1.1" id="LinkedIn_w_x2F__circle" xmlns="http://www.w3.org/2000/svg" xmlns:xlink="http://www.w3.org/1999/xlink"
	 x="0px" y="0px" viewBox="0 0 40 40" style="enable-background:new 0 0 40 40;" xml:space="preserve">
<style type="text/css">
	.st0{fill:#FFFFFF;}
</style>
<path class="st0" d="M20,0C9,0,0,9,0,20s9,20,20,20s20-9,20-20S31,0,20,0z M15.1,28.3H11v-13h4.1V28.3z M13.1,13.7
	c-1.3,0-2.1-0.9-2.1-2s0.9-2,2.2-2s2.1,0.9,2.1,2C15.2,12.7,14.4,13.7,13.1,13.7z M29.9,28.3h-4v-7.2c0-1.7-0.6-2.8-2.1-2.8
	c-1.1,0-1.8,0.8-2.1,1.5c-0.1,0.3-0.1,0.6-0.1,1v7.5h-4.1v-8.9c0-1.6-0.1-3-0.1-4.2h3.5l0.2,1.8h0.1c0.5-0.8,1.8-2.1,4-2.1
	c2.7,0,4.7,1.8,4.7,5.6C29.9,20.5,29.9,28.3,29.9,28.3z"/>
</svg>
