<?xml version="1.0" encoding="utf-8"?>
<!-- Generator: Adobe Illustrator 19.2.1, SVG Export Plug-In . SVG Version: 6.00 Build 0)  -->
<svg version="1.1" id="LinkedIn_w_x2F__circle" xmlns="http://www.w3.org/2000/svg" xmlns:xlink="http://www.w3.org/1999/xlink"
	 x="0px" y="0px" viewBox="0 0 40 40" style="enable-background:new 0 0 40 40;" xml:space="preserve">
<style type="text/css">
	.st0{fill:#FFFFFF;}
</style>
<path class="st0" d="M20,0C9,0,0,9,0,20s9,20,20,20s20-9,20-20S31,0,20,0z M12.1,13.8h15.7c0.8,0,0.4,1.1,0,1.3
	c-0.5,0.3-6.7,4.1-6.9,4.2c-0.2,0.1-0.5,0.2-0.8,0.2s-0.6-0.1-0.8-0.2c-0.2-0.1-6.5-3.9-6.9-4.2C11.7,14.8,11.3,13.8,12.1,13.8z
	 M28.3,25.2c0,0.4-0.5,1-0.9,1H12.6c-0.4,0-0.9-0.6-0.9-1c0,0,0-7.4,0-7.6s0-0.4,0.4-0.2c0.5,0.3,6.8,4,7.1,4.2
	c0.3,0.2,0.5,0.2,0.8,0.2s0.5,0,0.8-0.2s6.6-3.9,7.2-4.2c0.4-0.2,0.4,0,0.4,0.2C28.3,17.8,28.3,25.2,28.3,25.2z"/>
</svg>
