<?xml version="1.0" encoding="utf-8"?>
<!-- Generator: Adobe Illustrator 19.2.1, SVG Export Plug-In . SVG Version: 6.00 Build 0)  -->
<svg version="1.1" id="Layer_1" xmlns="http://www.w3.org/2000/svg" xmlns:xlink="http://www.w3.org/1999/xlink" x="0px" y="0px"
	 viewBox="0 0 200 32.4" style="enable-background:new 0 0 200 32.4;" xml:space="preserve">
<style type="text/css">
	.st0{fill:#1883B6;}
</style>
<polygon class="st0" points="200,28.2 176.1,4.2 171.8,0 167.6,4.2 147.9,24 128.1,4.2 123.9,0 119.7,4.2 100,23.9 80.3,4.2 76,0 
	52.1,23.9 28.2,0 23.9,4.2 0,28.2 4.2,32.4 28.2,8.4 52.1,32.4 76,8.4 95.8,28.2 95.8,28.2 100,32.4 100,32.4 100,32.4 104.2,28.2 
	104.2,28.2 123.9,8.4 147.9,32.4 147.9,32.4 147.9,32.4 171.8,8.4 195.8,32.4 "/>
</svg>
